<svg width="234" height="100" viewBox="0 0 234 100" fill="none" xmlns="http://www.w3.org/2000/svg">
<path d="M74.7855 0H52.7273V45.8182H68.1746V34.56H74.7855C87.5491 34.56 95.6655 27.8836 95.6655 17.28C95.6655 6.67636 87.5491 0 74.7855 0ZM73.8037 22.6473H68.1746V11.9127H73.8037C78.0582 11.9127 80.0873 13.9418 80.0873 17.28C80.0873 20.6182 78.0582 22.6473 73.8037 22.6473Z" fill="#333333"/>
<path d="M132.729 45.8182H148.7L128.67 0H113.485L93.4559 45.8182H109.165L112.241 37.8327H129.652L132.729 45.8182ZM116.496 26.7055L120.947 15.1855L125.398 26.7055H116.496Z" fill="#333333"/>
<path d="M192.734 0H177.81L168.384 15.84L159.024 0H142.726L160.006 28.9964V45.8182H175.454V29.1927L192.734 0Z" fill="#333333"/>
<path d="M80.1528 98.5455H96.6473L87.0255 84.4073C92.5237 81.5927 95.6655 76.6182 95.6655 70.0073C95.6655 59.4036 87.5491 52.7273 74.7855 52.7273H52.7273V98.5455H68.1746V87.0255H72.3637L80.1528 98.5455ZM80.0873 70.0073C80.0873 73.3455 78.0582 75.3746 73.8037 75.3746H68.1746V64.64H73.8037C78.0582 64.64 80.0873 66.6691 80.0873 70.0073Z" fill="#333333"/>
<path d="M125.52 99.5927C140.444 99.5927 151.375 89.5127 151.375 75.6364C151.375 61.76 140.444 51.68 125.52 51.68C110.597 51.68 99.6659 61.76 99.6659 75.6364C99.6659 89.5127 110.597 99.5927 125.52 99.5927ZM125.52 87.0909C119.826 87.0909 115.244 82.7709 115.244 75.6364C115.244 68.5018 119.826 64.1818 125.52 64.1818C131.215 64.1818 135.797 68.5018 135.797 75.6364C135.797 82.7709 131.215 87.0909 125.52 87.0909Z" fill="#333333"/>
<path d="M156.982 98.5455H193.112V86.5673H172.429V52.7273H156.982V98.5455Z" fill="#333333"/>
<path d="M197.379 98.5455H233.51V86.5673H212.827V52.7273H197.379V98.5455Z" fill="#333333"/>
<rect x="197.273" width="36.3636" height="45.4545" fill="#FFC043"/>
<path d="M41.8181 0L41.8181 100L-6.0704e-05 100L-6.10948e-05 8.3449e-07L41.8181 0Z" fill="#FFC043"/>
</svg>
