<svg width="24" height="24" viewBox="0 0 24 24" fill="none" xmlns="http://www.w3.org/2000/svg">
<path fill-rule="evenodd" clip-rule="evenodd" d="M5.36886 2.90681C4.43596 2.90681 3.54126 3.27981 2.88159 3.94376C2.22193 4.60771 1.85133 5.50822 1.85133 6.44718V16.5093C1.85133 17.4483 2.22193 18.3488 2.88159 19.0127C3.54126 19.6767 4.43596 20.0497 5.36886 20.0497H8.70126C9.21249 20.0497 9.62693 20.4668 9.62693 20.9813C9.62693 21.4959 9.21249 21.913 8.70126 21.913H5.36886C3.94495 21.913 2.57936 21.3437 1.5725 20.3303C0.565647 19.3169 0 17.9425 0 16.5093V6.44718C0 5.01403 0.565647 3.63957 1.5725 2.62617C2.57936 1.61278 3.94495 1.04346 5.36886 1.04346H17.5877C19.0116 1.04346 20.3772 1.61278 21.384 2.62617C22.3909 3.63957 22.9565 5.01403 22.9565 6.44718V9.80122C22.9565 10.3158 22.5421 10.7329 22.0309 10.7329C21.5196 10.7329 21.1052 10.3158 21.1052 9.80122V6.44718C21.1052 5.50822 20.7346 4.60771 20.0749 3.94376C19.4153 3.27981 18.5206 2.90681 17.5877 2.90681H5.36886Z" fill="#1F1F1F"/>
<path fill-rule="evenodd" clip-rule="evenodd" d="M7.30434 0C7.88064 0 8.34782 0.42471 8.34782 0.948617V3.2253C8.34782 3.7492 7.88064 4.17391 7.30434 4.17391C6.72805 4.17391 6.26086 3.7492 6.26086 3.2253V0.948617C6.26086 0.42471 6.72805 0 7.30434 0Z" fill="#1F1F1F"/>
<path fill-rule="evenodd" clip-rule="evenodd" d="M15.6522 0C16.2285 0 16.6957 0.42471 16.6957 0.948617V3.2253C16.6957 3.7492 16.2285 4.17391 15.6522 4.17391C15.0759 4.17391 14.6087 3.7492 14.6087 3.2253V0.948617C14.6087 0.42471 15.0759 0 15.6522 0Z" fill="#1F1F1F"/>
<path fill-rule="evenodd" clip-rule="evenodd" d="M0 7.30422C0 6.72792 0.414435 6.26074 0.925666 6.26074H22.0309C22.5421 6.26074 22.9565 6.72792 22.9565 7.30422C22.9565 7.88052 22.5421 8.3477 22.0309 8.3477H0.925666C0.414435 8.3477 0 7.88052 0 7.30422Z" fill="#1F1F1F"/>
<path fill-rule="evenodd" clip-rule="evenodd" d="M19.5848 15.8936C19.9065 16.2153 19.9065 16.7369 19.5848 17.0587L18.102 18.5415C17.7802 18.8632 17.2586 18.8632 16.9369 18.5415C16.6152 18.2198 16.6152 17.6982 16.9369 17.3765L18.4198 15.8936C18.7415 15.5719 19.2631 15.5719 19.5848 15.8936Z" fill="#1F1F1F"/>
<path fill-rule="evenodd" clip-rule="evenodd" d="M17.2174 12.3725C14.5417 12.3725 12.3727 14.5415 12.3727 17.2172C12.3727 19.8928 14.5417 22.0619 17.2174 22.0619C19.8931 22.0619 22.0621 19.8928 22.0621 17.2172C22.0621 14.5415 19.8931 12.3725 17.2174 12.3725ZM10.4348 17.2172C10.4348 13.4712 13.4715 10.4346 17.2174 10.4346C20.9633 10.4346 24 13.4712 24 17.2172C24 20.9631 20.9633 23.9998 17.2174 23.9998C13.4715 23.9998 10.4348 20.9631 10.4348 17.2172Z" fill="#1F1F1F"/>
</svg>
