<svg width="24" height="24" viewBox="0 0 24 24" fill="none" xmlns="http://www.w3.org/2000/svg">
<path d="M3.4 8.4C2.76348 8.4 2.15303 8.14714 1.70294 7.69706C1.25286 7.24697 1 6.63652 1 6V2.4C1 1.76348 1.25286 1.15303 1.70294 0.702944C2.15303 0.252856 2.76348 0 3.4 0H8.2C8.83652 0 9.44697 0.252856 9.89706 0.702944C10.3471 1.15303 10.6 1.76348 10.6 2.4V6C10.6 6.63652 10.3471 7.24697 9.89706 7.69706C9.44697 8.14714 8.83652 8.4 8.2 8.4H3.4ZM3.4 6H8.2V2.4H3.4V6ZM3.4 24C2.76348 24 2.15303 23.7471 1.70294 23.2971C1.25286 22.847 1 22.2365 1 21.6V12C1 11.3635 1.25286 10.753 1.70294 10.3029C2.15303 9.85286 2.76348 9.6 3.4 9.6H8.2C8.83652 9.6 9.44697 9.85286 9.89706 10.3029C10.3471 10.753 10.6 11.3635 10.6 12V21.6C10.6 22.2365 10.3471 22.847 9.89706 23.2971C9.44697 23.7471 8.83652 24 8.2 24H3.4ZM3.4 21.6H8.2V12H3.4V21.6ZM13 21.6C13 22.2365 13.2529 22.847 13.7029 23.2971C14.153 23.7471 14.7635 24 15.4 24H20.2C20.8365 24 21.447 23.7471 21.8971 23.2971C22.3471 22.847 22.6 22.2365 22.6 21.6V19.2C22.6 18.5635 22.3471 17.953 21.8971 17.5029C21.447 17.0529 20.8365 16.8 20.2 16.8H15.4C14.7635 16.8 14.153 17.0529 13.7029 17.5029C13.2529 17.953 13 18.5635 13 19.2V21.6ZM20.2 21.6H15.4V19.2H20.2V21.6ZM15.4 14.4C14.7635 14.4 14.153 14.1471 13.7029 13.6971C13.2529 13.247 13 12.6365 13 12V2.4C13 1.76348 13.2529 1.15303 13.7029 0.702944C14.153 0.252856 14.7635 0 15.4 0H20.2C20.8365 0 21.447 0.252856 21.8971 0.702944C22.3471 1.15303 22.6 1.76348 22.6 2.4V12C22.6 12.6365 22.3471 13.247 21.8971 13.6971C21.447 14.1471 20.8365 14.4 20.2 14.4H15.4ZM15.4 12H20.2V2.4H15.4V12Z" fill="#1F1F1F"/>
</svg>
