<svg width="28" height="28" viewBox="0 0 28 28" fill="none" xmlns="http://www.w3.org/2000/svg">
<g clip-path="url(#clip0)">
<path d="M22.4118 3.11133H23.9642V3.88911H22.4118V3.11133Z" fill="#66757F"/>
<path d="M1.55548 9.33301V24.8886C1.55548 25.7137 1.88326 26.505 2.46671 27.0885C3.05015 27.6719 3.84148 27.9997 4.6666 27.9997H23.3333C24.1584 27.9997 24.9497 27.6719 25.5331 27.0885C26.1166 26.505 26.4444 25.7137 26.4444 24.8886V9.33301H1.55548Z" fill="#CCD6DD"/>
<path d="M23.3333 3.11133H4.6666C3.84148 3.11133 3.05015 3.4391 2.46671 4.02255C1.88326 4.606 1.55548 5.39732 1.55548 6.22244V10.1113H26.4444V6.22244C26.4444 5.39732 26.1166 4.606 25.5331 4.02255C24.9497 3.4391 24.1584 3.11133 23.3333 3.11133Z" fill="#DD2E44"/>
<path d="M6.87257 6.79083C6.32657 6.79083 5.88402 6.27283 5.88402 5.63272C5.88402 4.99339 6.32657 4.47461 6.87257 4.47461C7.41779 4.47461 7.86035 4.99339 7.86035 5.63272C7.86035 6.27205 7.41779 6.79083 6.87257 6.79083ZM11.5392 6.79083C10.9932 6.79083 10.5507 6.27283 10.5507 5.63272C10.5507 4.99339 10.9932 4.47461 11.5392 4.47461C12.0845 4.47461 12.527 4.99339 12.527 5.63272C12.527 6.27205 12.0845 6.79083 11.5392 6.79083ZM16.2059 6.79083C15.6599 6.79083 15.2173 6.27283 15.2173 5.63272C15.2173 4.99339 15.6599 4.47461 16.2059 4.47461C16.7511 4.47461 17.1945 4.99339 17.1945 5.63272C17.1937 6.27205 16.7511 6.79083 16.2059 6.79083ZM20.8726 6.79083C20.3266 6.79083 19.884 6.27283 19.884 5.63272C19.884 4.99339 20.3266 4.47461 20.8726 4.47461C21.4178 4.47461 21.8611 4.99339 21.8611 5.63272C21.8603 6.27205 21.4178 6.79083 20.8726 6.79083Z" fill="#292F33"/>
<path d="M21.2451 0.139648C20.2519 0.139648 19.3917 0.763426 18.9164 1.67187C18.4451 0.782871 17.581 0.139648 16.5784 0.139648C15.5852 0.139648 14.725 0.763426 14.2498 1.67187C13.7784 0.782871 12.9143 0.139648 11.9118 0.139648C10.9186 0.139648 10.0583 0.763426 9.58311 1.67187C9.11178 0.782871 8.24766 0.139648 7.24511 0.139648C5.74089 0.139648 4.52289 1.55443 4.52289 3.25465C4.52289 4.69665 5.33567 5.87654 6.521 6.3082C7.11133 6.52209 7.473 5.96054 7.42244 5.5102C7.37967 5.13687 7.13155 4.89343 6.85544 4.71843C6.47822 4.47965 6.07767 3.93443 6.07767 3.25854C6.07767 2.39987 6.59955 1.62909 7.24433 1.62909C7.88911 1.62909 8.411 2.33298 8.411 3.11076H9.20122C9.19889 3.15898 9.18878 3.20487 9.18878 3.25387C9.18878 4.69587 10.0016 5.87576 11.1869 6.30743C11.7772 6.52132 12.1389 5.95976 12.0883 5.50943C12.0456 5.13687 11.7974 4.89343 11.5213 4.71843C11.1441 4.47965 10.7436 3.93443 10.7436 3.25854C10.7436 2.39987 11.2654 1.62909 11.9102 1.62909C12.555 1.62909 13.0784 2.33376 13.0784 3.11154H13.8687C13.8663 3.15976 13.8562 3.20565 13.8562 3.25465C13.8562 4.69665 14.669 5.87654 15.8543 6.3082C16.4447 6.52209 16.8063 5.96054 16.7558 5.5102C16.713 5.13765 16.4649 4.8942 16.1888 4.7192C15.8116 4.48043 15.411 3.9352 15.411 3.25932C15.411 2.40065 15.9329 1.62987 16.5777 1.62987C17.2224 1.62987 17.7451 2.33376 17.7451 3.11154H18.5353C18.533 3.15976 18.5229 3.20565 18.5229 3.25465C18.5229 4.69665 19.3357 5.87654 20.521 6.3082C21.1113 6.52209 21.473 5.96054 21.4224 5.5102C21.3797 5.13765 21.1315 4.8942 20.8554 4.7192C20.4782 4.48043 20.0777 3.9352 20.0777 3.25932C20.0777 2.40065 20.5996 1.62987 21.2443 1.62987C21.8891 1.62987 22.4118 2.33376 22.4118 3.11154H23.9642C23.9479 1.55598 22.7384 0.139648 21.2451 0.139648Z" fill="#66757F"/>
<path d="M8.5555 11.667H11.6666V14.7781H8.5555V11.667ZM12.4444 11.667H15.5555V14.7781H12.4444V11.667ZM16.3333 11.667H19.4444V14.7781H16.3333V11.667ZM20.2222 11.667H23.3333V14.7781H20.2222V11.667ZM4.66661 15.5559H7.77773V18.667H4.66661V15.5559ZM8.5555 15.5559H11.6666V18.667H8.5555V15.5559ZM12.4444 15.5559H15.5555V18.667H12.4444V15.5559ZM16.3333 15.5559H19.4444V18.667H16.3333V15.5559ZM20.2222 15.5559H23.3333V18.667H20.2222V15.5559ZM4.66661 19.4448H7.77773V22.5559H4.66661V19.4448ZM8.5555 19.4448H11.6666V22.5559H8.5555V19.4448ZM12.4444 19.4448H15.5555V22.5559H12.4444V19.4448ZM16.3333 19.4448H19.4444V22.5559H16.3333V19.4448ZM20.2222 19.4448H23.3333V22.5559H20.2222V19.4448ZM4.66661 23.3337H7.77773V26.4448H4.66661V23.3337ZM8.5555 23.3337H11.6666V26.4448H8.5555V23.3337ZM12.4444 23.3337H15.5555V26.4448H12.4444V23.3337Z" fill="white"/>
</g>
<defs>
<clipPath id="clip0">
<rect width="28" height="28" fill="white"/>
</clipPath>
</defs>
</svg>
