<svg width="16" height="16" viewBox="0 0 16 16" fill="none" xmlns="http://www.w3.org/2000/svg">
<path d="M3.38401 0C2.48651 0 1.62578 0.356529 0.991154 0.991154C0.356529 1.62578 0 2.48651 0 3.38401V11.3826C0 12.2801 0.356529 13.1408 0.991154 13.7754C1.62578 14.4101 2.48651 14.7666 3.38401 14.7666H4.98003L5.35166 13.2789C5.38211 13.1581 5.41742 13.0387 5.45748 12.9208H3.38401C2.53493 12.9208 1.84582 12.2317 1.84582 11.3826V3.69165H12.9208V5.14C13.5078 4.90854 14.1506 4.85797 14.7666 4.9948V3.38401C14.7666 2.48651 14.4101 1.62578 13.7754 0.991154C13.1408 0.356529 12.2801 0 11.3826 0H3.38401ZM15.4372 6.71264C15.259 6.53424 15.0473 6.39271 14.8143 6.29614C14.5813 6.19958 14.3315 6.14988 14.0793 6.14988C13.8271 6.14988 13.5774 6.19958 13.3444 6.29614C13.1114 6.39271 12.8997 6.53424 12.7214 6.71264L7.44359 11.9892C7.00587 12.4272 6.69537 12.9759 6.54529 13.5766L6.17243 15.0681C6.14125 15.1937 6.14308 15.3252 6.17772 15.4499C6.21237 15.5746 6.27867 15.6882 6.37018 15.7797C6.46169 15.8712 6.5753 15.9375 6.69999 15.9722C6.82468 16.0068 6.95621 16.0086 7.08181 15.9774L8.572 15.6046C9.17275 15.4545 9.72144 15.144 10.1594 14.7063L15.4372 9.42847C15.6156 9.25019 15.7572 9.03851 15.8537 8.80551C15.9503 8.57251 16 8.32277 16 8.07056C16 7.81834 15.9503 7.5686 15.8537 7.3356C15.7572 7.1026 15.6156 6.89092 15.4372 6.71264Z" fill="#757575"/>
</svg>
