<svg width="40" height="40" viewBox="0 0 40 40" fill="none" xmlns="http://www.w3.org/2000/svg">
<circle cx="20" cy="20" r="20" fill="url(#paint0_linear)"/>
<path fill-rule="evenodd" clip-rule="evenodd" d="M13.3333 16.6667C13.3333 12.8731 16.2064 10 20 10C23.7935 10 26.6666 12.8731 26.6666 16.6667C26.6666 18.6274 25.6749 20.0721 24.8406 21.2193C24.7775 21.306 24.7157 21.3906 24.6552 21.4732C24.2984 21.961 23.989 22.384 23.7485 22.815C23.4755 23.3041 23.3333 23.7345 23.3333 24.1667V26.6667C23.3333 27.6285 23.0923 28.5029 22.4642 29.1309C21.8362 29.759 20.9618 30 20 30C19.0382 30 18.1638 29.759 17.5357 29.1309C16.9077 28.5029 16.6666 27.6285 16.6666 26.6667V24.1667C16.6666 23.7345 16.5245 23.3041 16.2515 22.815C16.0109 22.384 15.7015 21.961 15.3447 21.4732C15.2843 21.3906 15.2224 21.306 15.1594 21.2193C14.325 20.0721 13.3333 18.6274 13.3333 16.6667ZM20 11.6667C17.1269 11.6667 15 13.7936 15 16.6667C15 18.0393 15.6749 19.0946 16.5073 20.239C16.5638 20.3167 16.6215 20.3955 16.6799 20.4752C17.033 20.9572 17.4119 21.4744 17.7068 22.0027C18.0588 22.6334 18.3333 23.3489 18.3333 24.1667H21.6666C21.6666 23.3489 21.9411 22.6334 22.2931 22.0027C22.588 21.4744 22.967 20.9572 23.3201 20.4752C23.3785 20.3955 23.4362 20.3167 23.4927 20.239C24.325 19.0946 25 18.0393 25 16.6667C25 13.7936 22.8731 11.6667 20 11.6667ZM21.6666 25.8333H18.3333V26.6667C18.3333 27.3715 18.509 27.7471 18.7142 27.9524C18.9195 28.1577 19.2951 28.3333 20 28.3333C20.7049 28.3333 21.0805 28.1577 21.2857 27.9524C21.491 27.7471 21.6666 27.3715 21.6666 26.6667V25.8333Z" fill="black"/>
<defs>
<linearGradient id="paint0_linear" x1="0" y1="20" x2="40" y2="20" gradientUnits="userSpaceOnUse">
<stop stop-color="#F9BA3C"/>
<stop offset="1" stop-color="#FFCF70"/>
</linearGradient>
</defs>
</svg>
