<svg width="14" height="15" viewBox="0 0 14 15" fill="none" xmlns="http://www.w3.org/2000/svg">
<path d="M9.49929 0.65918C8.79664 0.659019 8.10372 0.82345 7.47607 1.1393C6.84841 1.45515 6.30346 1.91363 5.88489 2.478C5.46633 3.04238 5.18578 3.69695 5.06574 4.38927C4.94569 5.08159 4.98949 5.7924 5.19361 6.46475L0 11.6584V14.6581H2.99978L8.19339 9.46452C8.81229 9.65239 9.46443 9.70461 10.1053 9.61765C10.7463 9.53069 11.3609 9.30657 11.9074 8.96058C12.4538 8.61459 12.9193 8.15486 13.272 7.61271C13.6247 7.07057 13.8564 6.45875 13.9513 5.81896C14.0462 5.17917 14.002 4.52644 13.8219 3.90526C13.6417 3.28408 13.3297 2.70904 12.9071 2.21934C12.4846 1.72964 11.9615 1.33679 11.3734 1.06755C10.7853 0.798319 10.1461 0.65903 9.49929 0.65918ZM9.49929 8.65858C9.15508 8.65839 8.81276 8.60752 8.48337 8.50759L7.90991 8.33361L7.48644 8.75708L5.89606 10.3475L5.20661 9.65851L4.49966 10.3655L5.18911 11.0549L4.39617 11.8478L3.70672 11.1584L2.99978 11.8653L3.68922 12.5548L2.58581 13.6582H0.999925V12.0723L5.90056 7.17169L6.32453 6.74823L6.15054 6.17477C5.93685 5.47032 5.95073 4.71642 6.19021 4.02031C6.4297 3.32421 6.88259 2.72134 7.48446 2.29747C8.08633 1.8736 8.80654 1.65031 9.54263 1.65937C10.2787 1.66843 10.9932 1.90936 11.5845 2.34791C12.1758 2.78646 12.6137 3.40029 12.836 4.10207C13.0582 4.80386 13.0536 5.55787 12.8226 6.25685C12.5917 6.95583 12.1462 7.56419 11.5495 7.99538C10.9529 8.42657 10.2354 8.65864 9.49929 8.65858Z" fill="#AFAFAF"/>
<path d="M9.99919 5.65903C10.5514 5.65903 10.9991 5.21135 10.9991 4.65911C10.9991 4.10686 10.5514 3.65918 9.99919 3.65918C9.44695 3.65918 8.99927 4.10686 8.99927 4.65911C8.99927 5.21135 9.44695 5.65903 9.99919 5.65903Z" fill="#AFAFAF"/>
</svg>
