<svg width="24" height="24" viewBox="0 0 24 24" fill="none" xmlns="http://www.w3.org/2000/svg">
<path d="M22.5 10.0019H4.71L10.155 3.46188C10.4096 3.15555 10.5321 2.76063 10.4955 2.36399C10.459 1.96735 10.2663 1.60149 9.96 1.34688C9.65368 1.09227 9.25875 0.969778 8.86211 1.00635C8.46548 1.04292 8.09961 1.23555 7.845 1.54188L0.345 10.5419C0.294541 10.6135 0.249419 10.6887 0.21 10.7669C0.21 10.8419 0.21 10.8869 0.105 10.9619C0.0370105 11.1339 0.00141168 11.3169 0 11.5019C0.00141168 11.6868 0.0370105 11.8699 0.105 12.0419C0.105 12.1169 0.105 12.1619 0.21 12.2369C0.249419 12.3151 0.294541 12.3903 0.345 12.4619L7.845 21.4619C7.98603 21.6312 8.16264 21.7674 8.36227 21.8607C8.5619 21.954 8.77963 22.0022 9 22.0019C9.35048 22.0026 9.69013 21.8805 9.96 21.6569C10.1119 21.531 10.2374 21.3763 10.3295 21.2018C10.4215 21.0273 10.4782 20.8363 10.4963 20.6398C10.5144 20.4434 10.4936 20.2453 10.435 20.0569C10.3765 19.8685 10.2813 19.6935 10.155 19.5419L4.71 13.0019H22.5C22.8978 13.0019 23.2794 12.8438 23.5607 12.5625C23.842 12.2812 24 11.8997 24 11.5019C24 11.1041 23.842 10.7225 23.5607 10.4412C23.2794 10.1599 22.8978 10.0019 22.5 10.0019Z" fill="#1F1F1F"/>
</svg>
