<svg width="108" height="47" viewBox="0 0 108 47" fill="none" xmlns="http://www.w3.org/2000/svg">
<path d="M34.5282 0H24.344V21.5345H31.4759V16.2432H34.5282C40.4211 16.2432 44.1684 13.1053 44.1684 8.1216C44.1684 3.13789 40.4211 0 34.5282 0ZM34.0749 10.6442H31.4759V5.59898H34.0749C36.0392 5.59898 36.976 6.55266 36.976 8.1216C36.976 9.69055 36.0392 10.6442 34.0749 10.6442Z" fill="#333333"/>
<path d="M61.2802 21.5345H68.6539L59.4066 0H52.3955L43.1482 21.5345H50.401L51.8214 17.7814H59.8599L61.2802 21.5345ZM53.7857 12.5516L55.8406 7.13717L57.8956 12.5516H53.7857Z" fill="#333333"/>
<path d="M88.9843 0H82.0941L77.7424 7.4448L73.4209 0H65.8961L73.8742 13.6283V21.5345H81.0061V13.7206L88.9843 0Z" fill="#333333"/>
<path d="M37.0062 46.3164H44.6217L40.1793 39.6714C42.7178 38.3486 44.1684 36.0106 44.1684 32.9034C44.1684 27.9197 40.4211 24.7818 34.5282 24.7818H24.344V46.3164H31.4759V40.902H33.41L37.0062 46.3164ZM36.976 32.9034C36.976 34.4724 36.0392 35.426 34.0749 35.426H31.4759V30.3808H34.0749C36.0392 30.3808 36.976 31.3345 36.976 32.9034Z" fill="#333333"/>
<path d="M57.9523 46.8086C64.8424 46.8086 69.8892 42.071 69.8892 35.5491C69.8892 29.0272 64.8424 24.2896 57.9523 24.2896C51.0621 24.2896 46.0153 29.0272 46.0153 35.5491C46.0153 42.071 51.0621 46.8086 57.9523 46.8086ZM57.9523 40.9327C55.3231 40.9327 53.2077 38.9023 53.2077 35.5491C53.2077 32.1959 55.3231 30.1655 57.9523 30.1655C60.5814 30.1655 62.6968 32.1959 62.6968 35.5491C62.6968 38.9023 60.5814 40.9327 57.9523 40.9327Z" fill="#333333"/>
<path d="M72.4777 46.3164H89.1592V40.6866H79.6097V24.7818H72.4777V46.3164Z" fill="#333333"/>
<path d="M91.1292 46.3164H107.811V40.6866H98.2611V24.7818H91.1292V46.3164Z" fill="#333333"/>
<rect x="91.0798" width="16.7889" height="21.3636" fill="#FFC043"/>
<path d="M19.3074 0L19.3074 47L0.000110515 47L0.000110626 3.9221e-07L19.3074 0Z" fill="#FFC043"/>
</svg>
