<svg width="24" height="24" viewBox="0 0 24 24" fill="none" xmlns="http://www.w3.org/2000/svg">
<path d="M9.6 2C4.296 2 0 4.148 0 6.8V18.8C0 21.452 4.308 23.6 9.6 23.6C14.892 23.6 19.2 21.452 19.2 18.8V6.8C19.2 4.148 14.904 2 9.6 2ZM16.8 18.8C16.8 19.4 14.244 21.2 9.6 21.2C4.956 21.2 2.4 19.4 2.4 18.8V16.124C4.332 17.06 6.864 17.6 9.6 17.6C12.336 17.6 14.868 17.06 16.8 16.124V18.8ZM16.8 13.34C15.24 14.48 12.504 15.2 9.6 15.2C6.696 15.2 3.96 14.48 2.4 13.34V9.968C4.164 10.964 6.732 11.6 9.6 11.6C12.468 11.6 15.036 10.964 16.8 9.968V13.34ZM9.6 9.2C4.956 9.2 2.4 7.4 2.4 6.8C2.4 6.2 4.956 4.4 9.6 4.4C14.244 4.4 16.8 6.2 16.8 6.8C16.8 7.4 14.244 9.2 9.6 9.2ZM24 6.8V14H21.6V6.8H24ZM21.6 16.4H24V18.8H21.6V16.4Z" fill="#1F1F1F"/>
</svg>
