<svg width="24" height="24" viewBox="0 0 24 24" fill="none" xmlns="http://www.w3.org/2000/svg">
<path fill-rule="evenodd" clip-rule="evenodd" d="M0 12.4C0 11.0745 1.07452 10 2.4 10C3.72548 10 4.8 11.0745 4.8 12.4C4.8 13.7255 3.72548 14.8 2.4 14.8C1.07452 14.8 0 13.7255 0 12.4Z" fill="#757575"/>
<path fill-rule="evenodd" clip-rule="evenodd" d="M9.59979 12.4C9.59979 11.0745 10.6743 10 11.9998 10C13.3253 10 14.3998 11.0745 14.3998 12.4C14.3998 13.7255 13.3253 14.8 11.9998 14.8C10.6743 14.8 9.59979 13.7255 9.59979 12.4Z" fill="#757575"/>
<path fill-rule="evenodd" clip-rule="evenodd" d="M19.2001 12.4C19.2001 11.0745 20.2746 10 21.6001 10C22.9256 10 24.0001 11.0745 24.0001 12.4C24.0001 13.7255 22.9256 14.8 21.6001 14.8C20.2746 14.8 19.2001 13.7255 19.2001 12.4Z" fill="#757575"/>
</svg>
