<svg width="40" height="40" viewBox="0 0 40 40" fill="none" xmlns="http://www.w3.org/2000/svg">
<circle cx="20" cy="20" r="20" fill="url(#paint0_linear)"/>
<path d="M19.8718 30C21 30 21.9231 29.0769 21.9231 27.9487H17.8205C17.8205 29.0769 18.7436 30 19.8718 30ZM26.0257 23.8462V18.7179C26.0257 15.5692 24.3539 12.9333 21.4103 12.2359V11.5385C21.4103 10.6872 20.7231 10 19.8718 10C19.0205 10 18.3334 10.6872 18.3334 11.5385V12.2359C15.4 12.9333 13.718 15.559 13.718 18.7179V23.8462L11.6667 25.8974V26.9231H28.0769V25.8974L26.0257 23.8462ZM23.9744 24.8718H15.7693V18.7179C15.7693 16.1744 17.318 14.1026 19.8718 14.1026C22.4257 14.1026 23.9744 16.1744 23.9744 18.7179V24.8718Z" fill="#1F1F1F"/>
<defs>
<linearGradient id="paint0_linear" x1="0" y1="20" x2="40" y2="20" gradientUnits="userSpaceOnUse">
<stop stop-color="#F9BA3C"/>
<stop offset="1" stop-color="#FFCF70"/>
</linearGradient>
</defs>
</svg>
