<svg width="24" height="24" viewBox="0 0 24 24" fill="none" xmlns="http://www.w3.org/2000/svg">
<path fill-rule="evenodd" clip-rule="evenodd" d="M3.17241 4.93103C2.84318 4.93103 2.52743 5.06182 2.29463 5.29463C2.06182 5.52743 1.93103 5.84318 1.93103 6.17241V17.2069C1.93103 17.5361 2.06182 17.8519 2.29463 18.0847C2.52743 18.3175 2.84318 18.4483 3.17241 18.4483H20.8276C21.1568 18.4483 21.4726 18.3175 21.7054 18.0847C21.9382 17.8519 22.069 17.5361 22.069 17.2069V6.17241C22.069 5.84318 21.9382 5.52743 21.7054 5.29463C21.4726 5.06182 21.1568 4.93103 20.8276 4.93103H3.17241ZM0.929178 3.92918C1.52412 3.33424 2.33104 3 3.17241 3H20.8276C21.669 3 22.4759 3.33424 23.0708 3.92918C23.6658 4.52412 24 5.33104 24 6.17241V17.2069C24 18.0483 23.6658 18.8552 23.0708 19.4501C22.4759 20.0451 21.669 20.3793 20.8276 20.3793H3.17241C2.33104 20.3793 1.52412 20.0451 0.929178 19.4501C0.334235 18.8552 0 18.0483 0 17.2069V6.17241C0 5.33104 0.334235 4.52412 0.929178 3.92918Z" fill="#1F1F1F"/>
<path fill-rule="evenodd" clip-rule="evenodd" d="M12 9.3451C10.705 9.3451 9.65519 10.3949 9.65519 11.6899C9.65519 12.9849 10.705 14.0348 12 14.0348C13.295 14.0348 14.3448 12.9849 14.3448 11.6899C14.3448 10.3949 13.295 9.3451 12 9.3451ZM7.72415 11.6899C7.72415 9.32843 9.63852 7.41406 12 7.41406C14.3615 7.41406 16.2759 9.32843 16.2759 11.6899C16.2759 14.0514 14.3615 15.9658 12 15.9658C9.63852 15.9658 7.72415 14.0514 7.72415 11.6899Z" fill="#1F1F1F"/>
<path fill-rule="evenodd" clip-rule="evenodd" d="M5.37931 3C5.91255 3 6.34483 3.43228 6.34483 3.96552C6.34483 5.3922 5.77808 6.76045 4.76926 7.76926C3.76045 8.77808 2.3922 9.34483 0.965517 9.34483C0.432277 9.34483 0 8.91255 0 8.37931C0 7.84607 0.432277 7.41379 0.965517 7.41379C1.88006 7.41379 2.75714 7.05049 3.40382 6.40382C4.05049 5.75714 4.41379 4.88006 4.41379 3.96552C4.41379 3.43228 4.84607 3 5.37931 3Z" fill="#1F1F1F"/>
<path fill-rule="evenodd" clip-rule="evenodd" d="M23.0344 15.9652C22.1199 15.9652 21.2428 16.3285 20.5961 16.9752C19.9494 17.6219 19.5861 18.499 19.5861 19.4135C19.5861 19.9467 19.1538 20.379 18.6206 20.379C18.0874 20.379 17.6551 19.9467 17.6551 19.4135C17.6551 17.9868 18.2218 16.6186 19.2307 15.6097C20.2395 14.6009 21.6077 14.0342 23.0344 14.0342C23.5676 14.0342 23.9999 14.4665 23.9999 14.9997C23.9999 15.5329 23.5676 15.9652 23.0344 15.9652Z" fill="#1F1F1F"/>
</svg>
