<svg width="24" height="24" viewBox="0 0 24 24" fill="none" xmlns="http://www.w3.org/2000/svg">
<path d="M1.5 10.0019H19.29L13.845 3.46188C13.5904 3.15555 13.4679 2.76063 13.5045 2.36399C13.541 1.96735 13.7337 1.60149 14.04 1.34688C14.3463 1.09227 14.7412 0.969778 15.1379 1.00635C15.5345 1.04292 15.9004 1.23555 16.155 1.54188L23.655 10.5419C23.7055 10.6135 23.7506 10.6887 23.79 10.7669C23.79 10.8419 23.79 10.8869 23.895 10.9619C23.963 11.1339 23.9986 11.3169 24 11.5019C23.9986 11.6868 23.963 11.8699 23.895 12.0419C23.895 12.1169 23.895 12.1619 23.79 12.2369C23.7506 12.3151 23.7055 12.3903 23.655 12.4619L16.155 21.4619C16.014 21.6312 15.8374 21.7674 15.6377 21.8607C15.4381 21.954 15.2204 22.0022 15 22.0019C14.6495 22.0026 14.3099 21.8805 14.04 21.6569C13.8881 21.531 13.7626 21.3763 13.6705 21.2018C13.5785 21.0273 13.5218 20.8363 13.5037 20.6398C13.4856 20.4434 13.5064 20.2453 13.565 20.0569C13.6235 19.8685 13.7187 19.6935 13.845 19.5419L19.29 13.0019H1.5C1.10217 13.0019 0.720644 12.8438 0.439339 12.5625C0.158033 12.2812 0 11.8997 0 11.5019C0 11.1041 0.158033 10.7225 0.439339 10.4412C0.720644 10.1599 1.10217 10.0019 1.5 10.0019Z" fill="#1F1F1F"/>
</svg>
