<svg width="40" height="40" viewBox="0 0 40 40" fill="none" xmlns="http://www.w3.org/2000/svg">
<circle cx="20" cy="20" r="19.5" fill="white" stroke="#AFAFAF"/>
<path d="M19.998 8C15.0026 8 11.0062 12.1739 11.0062 17.3913C10.7064 17.3913 10.4067 17.6 10.2069 17.8087C10.0071 18.1217 9.90715 18.4348 10.107 18.7478L11.1061 21.8783C11.206 22.2957 11.6056 22.6087 12.0053 22.6087H12.5068C12.6976 22.9092 12.9064 23.1941 13.1292 23.4685C13.437 23.9652 13.8026 24.4181 14.2143 24.8198C13.2109 25.7002 12.4038 26.799 11.8497 28.0392C11.2955 29.2795 11.0076 30.6313 11.0062 32H13.0044C13.0044 29.6313 14.0834 27.4442 15.9257 26.0449C16.8834 26.5308 17.9342 26.7831 18.9989 26.7826H20.9971C22.0487 26.783 23.087 26.537 24.0354 26.0626C25.8578 27.4077 26.9917 29.6584 26.9917 32H28.9899C28.9899 30.6321 28.6996 29.2813 28.1399 28.0446C27.5801 26.8079 26.7649 25.7162 25.7529 24.848C26.1765 24.439 26.5521 23.9777 26.8669 23.4685C27.0897 23.1941 27.2985 22.9092 27.4893 22.6087H27.9908C28.3905 22.6087 28.7901 22.2957 28.89 21.8783L29.8891 18.7478C30.0889 18.4348 29.989 18.1217 29.7892 17.8087C29.5894 17.6 29.2897 17.3913 28.9899 17.3913C28.9899 12.1739 24.9935 8 19.998 8ZM19.998 10.087C21.661 10.0767 23.2721 10.6905 24.5382 11.8166C25.8042 12.9428 26.6408 14.5063 26.8958 16.2226C26.4308 15.6079 25.838 15.1119 25.1622 14.772C24.4864 14.4321 23.7454 14.2573 22.9953 14.2609H17.0007C16.2507 14.2573 15.5097 14.4321 14.8339 14.772C14.1581 15.1119 13.5653 15.6079 13.1003 16.2226C13.3552 14.5063 14.1919 12.9428 15.4579 11.8166C16.724 10.6905 18.3351 10.0767 19.998 10.087ZM17.0007 16.3478H22.9953C24.6938 16.3478 25.9926 17.7043 25.9926 19.4783C25.9926 20.2243 25.8468 20.9287 25.587 21.5652H20.9971C20.3977 21.5652 19.998 22.087 19.998 22.6087C19.998 23.2348 20.4976 23.6522 20.9971 23.6522H23.6148C22.5226 24.3372 21.2721 24.698 19.998 24.6957C17.8999 24.6957 16.0386 23.7523 14.7628 22.2497C14.2662 21.4184 14.0031 20.4581 14.0035 19.4783C14.0035 17.7043 15.3023 16.3478 17.0007 16.3478Z" fill="#AFAFAF"/>
</svg>
